# This file uses centimeters as units for non-parametric coordinates.

mtllib STRAIGHT.mtl
g default
v 9.444129 1.616181 11.560982
v 9.599202 1.079624 11.560982
v 9.020463 2.008968 11.560982
v 8.441741 2.152739 11.560982
v 7.863002 2.008968 11.560982
v 7.439337 1.616181 11.560982
v 7.284264 1.079624 11.560982
v 7.439337 0.543066 11.560982
v 7.863002 0.150294 11.560982
v 8.441741 0.006524 11.560982
v 9.020463 0.150294 11.560982
v 9.444129 0.543066 11.560982
v 9.560517 1.678480 11.560982
v 9.733594 1.079624 11.560982
v 9.087659 2.116859 11.560982
v 8.441741 2.277321 11.560982
v 7.795807 2.116859 11.560982
v 7.322965 1.678480 11.560982
v 7.149888 1.079624 11.560982
v 7.322965 0.480783 11.560982
v 7.795807 0.042389 11.560982
v 8.441741 -0.118073 11.560982
v 9.087659 0.042389 11.560982
v 9.560517 0.480783 11.560982
v 9.560517 1.678480 11.899560
v 9.733594 1.079624 11.899560
v 9.087659 2.116859 11.899560
v 8.441741 2.277321 11.899560
v 7.795807 2.116859 11.899560
v 7.322965 1.678480 11.899560
v 7.149888 1.079624 11.899560
v 7.322965 0.480783 11.899560
v 7.795807 0.042389 11.899560
v 8.441741 -0.118073 11.899560
v 9.087659 0.042389 11.899560
v 9.560517 0.480783 11.899560
v 9.438884 1.613376 11.899560
v 9.593133 1.079624 11.899560
v 9.017436 2.004090 11.899560
v 8.441741 2.147112 11.899560
v 7.866029 2.004090 11.899560
v 7.444582 1.613376 11.899560
v 7.290334 1.079624 11.899560
v 7.444582 0.545888 11.899560
v 7.866029 0.155158 11.899560
v 8.441741 0.012136 11.899560
v 9.017436 0.155158 11.899560
v 9.438884 0.545888 11.899560
v 9.599202 1.079624 1.560191
v 9.444129 1.616181 1.560191
v 9.020463 2.008968 1.560191
v 8.441741 2.152739 1.560191
v 7.863002 2.008968 1.560191
v 7.439337 1.616181 1.560191
v 7.284264 1.079624 1.560191
v 7.439337 0.543066 1.560191
v 7.863002 0.150294 1.560191
v 8.441741 0.006524 1.560191
v 9.020463 0.150294 1.560191
v 9.444129 0.543066 1.560191
v 9.733594 1.079624 1.560191
v 9.560517 1.678480 1.560191
v 9.087659 2.116859 1.560191
v 8.441741 2.277321 1.560191
v 7.795807 2.116859 1.560191
v 7.322965 1.678480 1.560191
v 7.149888 1.079624 1.560191
v 7.322965 0.480783 1.560191
v 7.795807 0.042389 1.560191
v 8.441741 -0.118073 1.560191
v 9.087659 0.042389 1.560191
v 9.560517 0.480783 1.560191
v 9.733594 1.079624 1.221598
v 9.560517 1.678480 1.221598
v 9.087659 2.116859 1.221598
v 8.441741 2.277321 1.221598
v 7.795807 2.116859 1.221598
v 7.322965 1.678480 1.221598
v 7.149888 1.079624 1.221598
v 7.322965 0.480783 1.221598
v 7.795807 0.042389 1.221598
v 8.441741 -0.118073 1.221598
v 9.087659 0.042389 1.221598
v 9.560517 0.480783 1.221598
v 9.593133 1.079624 1.221614
v 9.438884 1.613376 1.221614
v 9.017436 2.004090 1.221614
v 8.441741 2.147112 1.221614
v 7.866029 2.004090 1.221614
v 7.444582 1.613376 1.221614
v 7.290334 1.079624 1.221614
v 7.444582 0.545888 1.221598
v 7.866029 0.155158 1.221598
v 8.441741 0.012136 1.221598
v 9.017436 0.155158 1.221598
v 9.438884 0.545888 1.221598
vt 0.457082 0.004895
vt 0.513607 0.004892
vt 0.400557 0.004899
vt 0.344033 0.004902
vt 0.287508 0.004905
vt 0.230983 0.004908
vt 0.174457 0.004911
vt 0.117932 0.004914
vt 0.061408 0.004917
vt 0.004883 0.004921
vt 0.626657 0.004886
vt 0.570133 0.004889
vt 0.926941 0.509582
vt 0.926934 0.572670
vt 0.926947 0.446494
vt 0.926953 0.383408
vt 0.926959 0.320319
vt 0.926965 0.257233
vt 0.926971 0.194145
vt 0.926977 0.131058
vt 0.926983 0.067971
vt 0.926916 0.761932
vt 0.926922 0.698845
vt 0.926928 0.635757
vt 0.995104 0.572670
vt 0.995099 0.509582
vt 0.995094 0.446494
vt 0.995090 0.383408
vt 0.995085 0.320319
vt 0.995081 0.257233
vt 0.995076 0.194145
vt 0.995072 0.131058
vt 0.995067 0.067971
vt 0.995063 0.004883
vt 0.995113 0.698845
vt 0.995108 0.635756
vt 0.963165 0.635759
vt 0.963160 0.572672
vt 0.963169 0.698847
vt 0.963119 0.004885
vt 0.963124 0.067973
vt 0.963128 0.131061
vt 0.963133 0.194147
vt 0.963137 0.257235
vt 0.963142 0.320322
vt 0.963146 0.383410
vt 0.963151 0.446497
vt 0.963156 0.509584
vt 0.570185 0.948381
vt 0.513660 0.948384
vt 0.626709 0.948378
vt 0.004935 0.948412
vt 0.683233 0.948374
vt 0.683180 0.004883
vt 0.061460 0.948409
vt 0.117984 0.948406
vt 0.174510 0.948403
vt 0.231035 0.948399
vt 0.287560 0.948396
vt 0.344085 0.948393
vt 0.400609 0.948390
vt 0.457134 0.948387
vt 0.958876 0.572673
vt 0.958870 0.635760
vt 0.958864 0.698848
vt 0.958858 0.761935
vt 0.958925 0.067974
vt 0.958919 0.131061
vt 0.958913 0.194148
vt 0.958907 0.257236
vt 0.958901 0.320322
vt 0.958895 0.383411
vt 0.958889 0.446497
vt 0.958882 0.509585
vt 0.963174 0.761934
vt 0.995117 0.761932
vt 0.926989 0.004883
vt 0.958932 0.004886
vt 0.718900 0.755210
vt 0.773536 0.723665
vt 0.776966 0.736464
vt 0.728270 0.764580
vt 0.836623 0.723667
vt 0.833194 0.736465
vt 0.687357 0.809845
vt 0.700155 0.813274
vt 0.891258 0.755210
vt 0.881889 0.764579
vt 0.687357 0.872933
vt 0.700155 0.869503
vt 0.922802 0.809846
vt 0.910004 0.813275
vt 0.718900 0.927568
vt 0.728269 0.918199
vt 0.922802 0.872932
vt 0.910005 0.869503
vt 0.773536 0.959112
vt 0.776965 0.946313
vt 0.891258 0.927568
vt 0.881889 0.918199
vt 0.836623 0.959111
vt 0.833195 0.946313
vt 0.727865 0.284987
vt 0.718900 0.276021
vt 0.773536 0.244477
vt 0.776818 0.256724
vt 0.699603 0.333939
vt 0.687357 0.330656
vt 0.836623 0.244478
vt 0.833343 0.256724
vt 0.699604 0.390463
vt 0.687357 0.393745
vt 0.891258 0.276021
vt 0.882294 0.284985
vt 0.727865 0.439414
vt 0.718900 0.448379
vt 0.922802 0.330657
vt 0.910556 0.333938
vt 0.776818 0.467677
vt 0.773536 0.479924
vt 0.922802 0.393743
vt 0.910556 0.390463
vt 0.833341 0.467678
vt 0.836623 0.479922
vt 0.891258 0.448379
vt 0.882294 0.439415
vt 0.891259 0.515615
vt 0.881889 0.524986
vt 0.833193 0.496870
vt 0.836623 0.484071
vt 0.922802 0.570250
vt 0.910003 0.573680
vt 0.776965 0.496871
vt 0.773536 0.484072
vt 0.922802 0.633339
vt 0.910003 0.629909
vt 0.728270 0.524984
vt 0.718901 0.515615
vt 0.891259 0.687973
vt 0.881890 0.678604
vt 0.700155 0.573681
vt 0.687357 0.570251
vt 0.836623 0.719518
vt 0.833193 0.706719
vt 0.700154 0.629909
vt 0.687357 0.633337
vt 0.773536 0.719517
vt 0.776964 0.706719
vt 0.728270 0.678604
vt 0.718901 0.687974
vt 0.882294 0.045392
vt 0.833342 0.017130
vt 0.836623 0.004883
vt 0.891259 0.036427
vt 0.776816 0.017130
vt 0.773536 0.004884
vt 0.910556 0.094345
vt 0.922802 0.091062
vt 0.727865 0.045391
vt 0.718901 0.036427
vt 0.910555 0.150869
vt 0.922802 0.154150
vt 0.699603 0.094344
vt 0.687357 0.091063
vt 0.882294 0.199820
vt 0.891259 0.208785
vt 0.699603 0.150869
vt 0.687357 0.154149
vt 0.833341 0.228082
vt 0.836623 0.240329
vt 0.727865 0.199821
vt 0.718901 0.208785
vt 0.776817 0.228084
vt 0.773536 0.240328
vn 0.848860 0.528618 0.000000
vn 1.000000 0.000000 0.000000
vn 1.000000 0.000000 0.000000
vn 0.848860 0.528618 0.000000
vn 0.471923 0.881640 0.000000
vn 0.471923 0.881640 0.000000
vn -0.000000 1.000000 0.000000
vn -0.000000 1.000000 0.000000
vn -0.471917 0.881643 0.000000
vn -0.471917 0.881643 0.000000
vn -0.848860 0.528618 0.000000
vn -0.848860 0.528618 0.000000
vn -1.000000 0.000000 0.000000
vn -1.000000 0.000000 0.000000
vn -0.848856 -0.528624 0.000000
vn -0.848856 -0.528624 0.000000
vn -0.471907 -0.881648 0.000000
vn -0.471907 -0.881648 0.000000
vn -0.241093 -0.970502 0.000000
vn -0.241093 -0.970502 0.000000
vn 0.471913 -0.881645 0.000000
vn 0.241099 -0.970500 0.000000
vn 0.241099 -0.970500 0.000000
vn 0.471913 -0.881645 0.000000
vn 0.848856 -0.528624 0.000000
vn 0.848856 -0.528624 0.000000
vn 0.000003 0.000000 -1.000000
vn 0.000002 0.000000 -1.000000
vn 0.000002 0.000000 -1.000000
vn 0.000003 0.000000 -1.000000
vn 0.000002 0.000000 -1.000000
vn 0.000002 0.000000 -1.000000
vn 0.000001 0.000000 -1.000000
vn 0.000001 0.000000 -1.000000
vn -0.000001 0.000000 -1.000000
vn -0.000001 0.000000 -1.000000
vn -0.000002 0.000000 -1.000000
vn -0.000002 0.000000 -1.000000
vn -0.000005 0.000000 -1.000000
vn -0.000005 0.000000 -1.000000
vn -0.000003 0.000000 -1.000000
vn -0.000003 0.000000 -1.000000
vn 0.000002 0.000000 -1.000000
vn 0.000002 0.000000 -1.000000
vn 0.000001 0.000000 -1.000000
vn 0.000001 0.000000 -1.000000
vn -0.000002 0.000000 -1.000000
vn -0.000002 0.000000 -1.000000
vn 0.000002 0.000000 -1.000000
vn 0.000002 0.000000 -1.000000
vn 1.000000 -0.000000 0.000000
vn 0.848857 0.528623 0.000000
vn 0.848857 0.528623 0.000000
vn 1.000000 -0.000000 0.000000
vn 0.471913 0.881645 0.000000
vn 0.471913 0.881645 0.000000
vn 0.000000 1.000000 0.000000
vn 0.000000 1.000000 0.000000
vn -0.471913 0.881645 0.000000
vn -0.471913 0.881645 0.000000
vn -0.848863 0.528613 0.000000
vn -0.848863 0.528613 0.000000
vn -1.000000 -0.000000 0.000000
vn -1.000000 -0.000000 0.000000
vn -0.848862 -0.528614 0.000000
vn -0.848862 -0.528614 0.000000
vn -0.471922 -0.881640 0.000000
vn -0.471922 -0.881640 0.000000
vn -0.241091 -0.970503 0.000000
vn -0.241091 -0.970503 0.000000
vn 0.241096 -0.970501 0.000000
vn 0.471922 -0.881640 0.000000
vn 0.471922 -0.881640 0.000000
vn 0.241096 -0.970501 0.000000
vn 0.848856 -0.528624 0.000000
vn 0.848856 -0.528624 0.000000
vn -0.000006 0.000000 1.000000
vn -0.000003 0.000000 1.000000
vn -0.000003 0.000000 1.000000
vn -0.000006 0.000000 1.000000
vn 0.000002 0.000000 1.000000
vn 0.000002 0.000000 1.000000
vn -0.000001 0.000000 1.000000
vn -0.000001 0.000000 1.000000
vn -0.000003 0.000000 1.000000
vn -0.000003 0.000000 1.000000
vn 0.000002 0.000000 1.000000
vn 0.000002 0.000000 1.000000
vn 0.000004 0.000000 1.000000
vn 0.000004 0.000000 1.000000
vn -0.000001 0.000000 1.000000
vn -0.000001 0.000000 1.000000
vn -0.000002 0.000000 1.000000
vn -0.000002 0.000000 1.000000
vn 0.000001 0.000000 1.000000
vn 0.000001 0.000000 1.000000
vn 0.000001 0.000000 1.000000
vn 0.000001 0.000000 1.000000
vn -0.000002 0.000000 1.000000
vn -0.000002 0.000000 1.000000
vn 0.000000 0.000000 1.000000
vn 0.000000 0.000000 1.000000
vn 0.000000 0.000000 1.000000
vn 0.000000 0.000000 1.000000
vn 0.000000 0.000000 1.000000
vn 0.000000 0.000000 1.000000
vn 0.000000 0.000000 1.000000
vn -0.000000 0.000000 1.000000
vn -0.000000 0.000000 1.000000
vn -0.000000 0.000000 1.000000
vn -0.000000 0.000000 1.000000
vn -0.000000 0.000000 1.000000
vn 0.000000 0.000000 1.000000
vn 0.000000 0.000000 1.000000
vn 0.000000 0.000000 1.000000
vn 0.000000 0.000000 1.000000
vn 0.000000 0.000000 1.000000
vn 0.000000 0.000000 1.000000
vn 0.000000 0.000000 1.000000
vn 0.000000 0.000000 1.000000
vn 0.000000 0.000000 1.000000
vn 0.000000 0.000000 1.000000
vn 0.000000 0.000000 1.000000
vn 0.000000 0.000000 1.000000
vn 1.000000 0.000000 0.000000
vn 1.000000 0.000000 0.000000
vn 0.848857 0.528623 0.000000
vn 0.848857 0.528623 0.000000
vn 0.471913 0.881645 0.000000
vn 0.471913 0.881645 0.000000
vn 0.000000 1.000000 0.000000
vn 0.000000 1.000000 0.000000
vn -0.471913 0.881645 0.000000
vn -0.471913 0.881645 0.000000
vn -0.848863 0.528614 0.000000
vn -0.848863 0.528614 0.000000
vn -1.000000 0.000000 0.000000
vn -1.000000 0.000000 0.000000
vn -0.848863 -0.528614 0.000000
vn -0.848863 -0.528614 0.000000
vn -0.471922 -0.881640 0.000000
vn -0.471922 -0.881640 0.000000
vn -0.241091 -0.970503 0.000000
vn -0.241091 -0.970503 0.000000
vn 0.241096 -0.970501 0.000000
vn 0.241096 -0.970501 0.000000
vn 0.471922 -0.881640 0.000000
vn 0.471922 -0.881640 0.000000
vn 0.848857 -0.528623 0.000000
vn 0.848857 -0.528623 0.000000
vn -0.000083 -0.000002 -1.000000
vn -0.000083 -0.000002 -1.000000
vn -0.000098 -0.000061 -1.000000
vn -0.000098 -0.000061 -1.000000
vn -0.000057 -0.000106 -1.000000
vn -0.000057 -0.000106 -1.000000
vn -0.000000 -0.000122 -1.000000
vn 0.000000 -0.000122 -1.000000
vn 0.000057 -0.000106 -1.000000
vn 0.000057 -0.000106 -1.000000
vn 0.000098 -0.000061 -1.000000
vn 0.000098 -0.000061 -1.000000
vn 0.000083 -0.000002 -1.000000
vn 0.000083 -0.000002 -1.000000
vn 0.000027 0.000015 -1.000000
vn 0.000027 0.000015 -1.000000
vn 0.000000 0.000000 -1.000000
vn 0.000000 0.000000 -1.000000
vn -0.000000 0.000000 -1.000000
vn -0.000000 0.000000 -1.000000
vn -0.000000 0.000000 -1.000000
vn -0.000000 0.000000 -1.000000
vn -0.000027 0.000015 -1.000000
vn -0.000027 0.000015 -1.000000
s 1
g Pipess:LOW Pipess:Straint
usemtl Pipess:lambert1SG
f 1/1/1 2/2/2 49/50/3 50/62/4
f 3/3/5 1/1/1 50/62/4 51/61/6
f 4/4/7 3/3/5 51/61/6 52/60/8
f 5/5/9 4/4/7 52/60/8 53/59/10
f 6/6/11 5/5/9 53/59/10 54/58/12
f 7/7/13 6/6/11 54/58/12 55/57/14
f 8/8/15 7/7/13 55/57/14 56/56/16
f 9/9/17 8/8/15 56/56/16 57/55/18
f 10/10/19 9/9/17 57/55/18 58/52/20
f 11/11/21 10/54/22 58/53/23 59/51/24
f 12/12/25 11/11/21 59/51/24 60/49/26
f 2/2/2 12/12/25 60/49/26 49/50/3
s 3
f 2/151/27 1/152/28 13/153/29 14/154/30
f 1/152/28 3/155/31 15/156/32 13/153/29
f 3/155/31 4/159/33 16/160/34 15/156/32
f 4/159/33 5/163/35 17/164/36 16/160/34
f 5/163/35 6/167/37 18/168/38 17/164/36
f 6/167/37 7/171/39 19/172/40 18/168/38
f 7/171/39 8/173/41 20/174/42 19/172/40
f 8/173/41 9/169/43 21/170/44 20/174/42
f 9/169/43 10/165/45 22/166/46 21/170/44
f 10/165/45 11/161/47 23/162/48 22/166/46
f 11/161/47 12/157/49 24/158/50 23/162/48
f 12/157/49 2/151/27 14/154/30 24/158/50
s 4
f 14/14/51 13/13/52 25/74/53 26/63/54
f 13/13/52 15/15/55 27/73/56 25/74/53
f 15/15/55 16/16/57 28/72/58 27/73/56
f 16/16/57 17/17/59 29/71/60 28/72/58
f 17/17/59 18/18/61 30/70/62 29/71/60
f 18/18/61 19/19/63 31/69/64 30/70/62
f 19/19/63 20/20/65 32/68/66 31/69/64
f 20/20/65 21/21/67 33/67/68 32/68/66
f 21/21/67 22/77/69 34/78/70 33/67/68
f 22/22/71 23/23/72 35/65/73 34/66/74
f 23/23/72 24/24/75 36/64/76 35/65/73
f 24/24/75 14/14/51 26/63/54 36/64/76
s 6
f 26/79/77 25/80/78 37/81/79 38/82/80
f 25/80/78 27/83/81 39/84/82 37/81/79
f 27/83/81 28/87/83 40/88/84 39/84/82
f 28/87/83 29/91/85 41/92/86 40/88/84
f 29/91/85 30/95/87 42/96/88 41/92/86
f 30/95/87 31/99/89 43/100/90 42/96/88
f 31/99/89 32/101/91 44/102/92 43/100/90
f 32/101/91 33/97/93 45/98/94 44/102/92
f 33/97/93 34/93/95 46/94/96 45/98/94
f 34/93/95 35/89/97 47/90/98 46/94/96
f 35/89/97 36/85/99 48/86/100 47/90/98
f 36/85/99 26/79/77 38/82/80 48/86/100
s 7
f 49/103/101 61/104/102 62/105/103 50/106/104
f 50/106/104 62/105/103 63/109/105 51/110/106
f 51/110/106 63/109/105 64/113/107 52/114/108
f 52/114/108 64/113/107 65/117/109 53/118/110
f 53/118/110 65/117/109 66/121/111 54/122/112
f 54/122/112 66/121/111 67/125/113 55/126/114
f 55/126/114 67/125/113 68/124/115 56/123/116
f 56/123/116 68/124/115 69/120/117 57/119/118
f 57/119/118 69/120/117 70/116/119 58/115/120
f 58/115/120 70/116/119 71/112/121 59/111/122
f 59/111/122 71/112/121 72/108/123 60/107/124
f 60/107/124 72/108/123 61/104/102 49/103/101
s 8
f 61/25/125 73/38/126 74/48/127 62/26/128
f 62/26/128 74/48/127 75/47/129 63/27/130
f 63/27/130 75/47/129 76/46/131 64/28/132
f 64/28/132 76/46/131 77/45/133 65/29/134
f 65/29/134 77/45/133 78/44/135 66/30/136
f 66/30/136 78/44/135 79/43/137 67/31/138
f 67/31/138 79/43/137 80/42/139 68/32/140
f 68/32/140 80/42/139 81/41/141 69/33/142
f 69/33/142 81/41/141 82/40/143 70/34/144
f 70/76/145 82/75/146 83/39/147 71/35/148
f 71/35/148 83/39/147 84/37/149 72/36/150
f 72/36/150 84/37/149 73/38/126 61/25/125
s 10
f 73/127/151 85/128/152 86/129/153 74/130/154
f 74/130/154 86/129/153 87/133/155 75/134/156
f 75/134/156 87/133/155 88/137/157 76/138/158
f 76/138/158 88/137/157 89/141/159 77/142/160
f 77/142/160 89/141/159 90/145/161 78/146/162
f 78/146/162 90/145/161 91/149/163 79/150/164
f 79/150/164 91/149/163 92/148/165 80/147/166
f 80/147/166 92/148/165 93/144/167 81/143/168
f 81/143/168 93/144/167 94/140/169 82/139/170
f 82/139/170 94/140/169 95/136/171 83/135/172
f 83/135/172 95/136/171 96/132/173 84/131/174
f 84/131/174 96/132/173 85/128/152 73/127/151
